<svg viewBox="0 0 16 17" fill="none" xmlns="http://www.w3.org/2000/svg">
  <g clip-path="url(#clip0_91_315)">
  <path d="M3.18667 11.7749L7.52 16.2749C7.58198 16.3374 7.65571 16.387 7.73695 16.4208C7.81819 16.4547 7.90533 16.4721 7.99334 16.4721C8.08134 16.4721 8.16848 16.4547 8.24972 16.4208C8.33096 16.387 8.40469 16.3374 8.46667 16.2749L12.8133 11.7749C12.9204 11.6451 12.9745 11.4797 12.9647 11.3117C12.9548 11.1437 12.8819 10.9857 12.7604 10.8693C12.6389 10.7529 12.4779 10.6867 12.3097 10.684C12.1415 10.6814 11.9784 10.7424 11.8533 10.8549L8.66667 14.1882L8.66667 1.14824C8.66667 0.97143 8.59643 0.801861 8.47141 0.676837C8.34638 0.551812 8.17681 0.481574 8 0.481574C7.82319 0.481574 7.65362 0.551812 7.5286 0.676837C7.40357 0.801861 7.33333 0.97143 7.33333 1.14824L7.33333 14.1616L4.14667 10.8282C4.0847 10.7632 4.01025 10.7114 3.92776 10.6759C3.84528 10.6404 3.75647 10.6219 3.66667 10.6216C3.49502 10.6223 3.33025 10.6891 3.20667 10.8082C3.1398 10.8692 3.08603 10.943 3.04863 11.0254C3.01123 11.1077 2.99098 11.1968 2.9891 11.2873C2.98723 11.3777 3.00378 11.4676 3.03775 11.5514C3.07171 11.6352 3.12238 11.7113 3.18667 11.7749Z" fill="currentColor"/>
  </g>
  <defs>
  <clipPath id="clip0_91_315">
  <rect width="16" height="16" fill="white" transform="matrix(-1 0 0 -1 16 16.4814)"/>
  </clipPath>
  </defs>
  </svg>
  