<svg viewBox="0 0 16 17" fill="none" xmlns="http://www.w3.org/2000/svg">
  <g clip-path="url(#clip0_66_2059)">
  <path d="M12.8133 5.55837L8.48 1.05837C8.41803 0.995889 8.34429 0.946293 8.26305 0.912447C8.18181 0.878601 8.09468 0.861176 8.00667 0.861176C7.91866 0.861176 7.83152 0.878601 7.75028 0.912447C7.66904 0.946293 7.59531 0.995889 7.53334 1.05837L3.18667 5.55837C3.07958 5.68815 3.02553 5.85362 3.03535 6.02158C3.04517 6.18955 3.11813 6.34759 3.23961 6.464C3.36108 6.58042 3.52209 6.6466 3.69032 6.64926C3.85855 6.65193 4.02157 6.59088 4.14667 6.47837L7.33334 3.14504V16.185C7.33334 16.3619 7.40357 16.5314 7.5286 16.6564C7.65362 16.7815 7.82319 16.8517 8 16.8517C8.17681 16.8517 8.34638 16.7815 8.47141 16.6564C8.59643 16.5314 8.66667 16.3619 8.66667 16.185V3.17171L11.8533 6.50504C11.9153 6.57004 11.9898 6.62186 12.0722 6.65737C12.1547 6.69288 12.2435 6.71137 12.3333 6.71171C12.505 6.71102 12.6698 6.64416 12.7933 6.52504C12.8602 6.46413 12.914 6.39025 12.9514 6.30789C12.9888 6.22554 13.009 6.13643 13.0109 6.046C13.0128 5.95557 12.9962 5.86571 12.9623 5.78187C12.9283 5.69804 12.8776 5.622 12.8133 5.55837Z" fill="currentColor"/>
  </g>
  <defs>
  <clipPath id="clip0_66_2059">
  <rect width="16" height="16" fill="white" transform="translate(0 0.851852)"/>
  </clipPath>
  </defs>
  </svg>
  