<svg viewBox="0 0 18 18" fill="none" xmlns="http://www.w3.org/2000/svg">
  <path d="M9.00001 17C7.19723 15.0151 4.75238 13.7296 2.09541 13.3692C1.79298 13.3357 1.51367 13.1914 1.31139 12.9642C1.1091 12.7368 0.998178 12.4427 1.00002 12.1384V2.23063C1.00001 2.05286 1.03851 1.87719 1.11287 1.71571C1.18724 1.55424 1.2957 1.41079 1.43079 1.29524C1.56351 1.18179 1.71884 1.09787 1.88649 1.04906C2.05412 1.00026 2.23023 0.987678 2.4031 1.01216C4.94376 1.43383 7.26798 2.70003 9.00001 4.60603V17Z" stroke="currentColor" stroke-linecap="round" stroke-linejoin="round"/>
  <path d="M9 17C10.8028 15.0151 13.2476 13.7296 15.9046 13.3692C16.207 13.3357 16.4864 13.1914 16.6886 12.9642C16.8909 12.7368 17.0018 12.4427 17 12.1384V2.23063C17 2.05286 16.9615 1.87719 16.8871 1.71571C16.8128 1.55424 16.7044 1.41079 16.5692 1.29524C16.4365 1.18179 16.2812 1.09787 16.1136 1.04906C15.9458 1.00026 15.7698 0.987678 15.5969 1.01216C13.0562 1.43383 10.732 2.70003 9 4.60603V17Z" stroke="currentColor" stroke-linecap="round" stroke-linejoin="round"/>
</svg>
  