<svg viewBox="0 0 16 16" fill="none" xmlns="http://www.w3.org/2000/svg">
  <g clip-path="url(#clip0_72_8404)">
  <path d="M14.0914 2.8457H1.90858C1.39101 2.8457 0.971436 3.26527 0.971436 3.78285V14.0914C0.971436 14.609 1.39101 15.0286 1.90858 15.0286H14.0914C14.609 15.0286 15.0286 14.609 15.0286 14.0914V3.78285C15.0286 3.26527 14.609 2.8457 14.0914 2.8457Z" stroke="currentColor" stroke-width="0.88" stroke-linecap="round" stroke-linejoin="round"/>
  <path d="M0.971436 6.5943H15.0286" stroke="currentColor" stroke-width="0.88" stroke-linecap="round" stroke-linejoin="round"/>
  <path d="M4.71997 4.25144V0.971436" stroke="currentColor" stroke-width="0.88" stroke-linecap="round" stroke-linejoin="round"/>
  <path d="M11.28 4.25144V0.971436" stroke="currentColor" stroke-width="0.88" stroke-linecap="round" stroke-linejoin="round"/>
  <path d="M4.01712 9.40571C3.88773 9.40571 3.78284 9.30081 3.78284 9.17142C3.78284 9.04203 3.88773 8.93713 4.01712 8.93713" stroke="currentColor" stroke-width="0.88"/>
  <path d="M4.01715 9.40571C4.14655 9.40571 4.25144 9.30081 4.25144 9.17142C4.25144 9.04203 4.14655 8.93713 4.01715 8.93713" stroke="currentColor" stroke-width="0.88"/>
  <path d="M4.01712 12.6857C3.88773 12.6857 3.78284 12.5808 3.78284 12.4514C3.78284 12.3221 3.88773 12.2172 4.01712 12.2172" stroke="currentColor" stroke-width="0.88"/>
  <path d="M4.01715 12.6857C4.14655 12.6857 4.25144 12.5808 4.25144 12.4514C4.25144 12.3221 4.14655 12.2172 4.01715 12.2172" stroke="currentColor" stroke-width="0.88"/>
  <path d="M7.99997 9.40571C7.87058 9.40571 7.76569 9.30081 7.76569 9.17142C7.76569 9.04203 7.87058 8.93713 7.99997 8.93713" stroke="currentColor" stroke-width="0.88"/>
  <path d="M8 9.40571C8.12939 9.40571 8.23429 9.30081 8.23429 9.17142C8.23429 9.04203 8.12939 8.93713 8 8.93713" stroke="currentColor" stroke-width="0.88"/>
  <path d="M7.99997 12.6857C7.87058 12.6857 7.76569 12.5808 7.76569 12.4514C7.76569 12.3221 7.87058 12.2172 7.99997 12.2172" stroke="currentColor" stroke-width="0.88"/>
  <path d="M8 12.6857C8.12939 12.6857 8.23429 12.5808 8.23429 12.4514C8.23429 12.3221 8.12939 12.2172 8 12.2172" stroke="currentColor" stroke-width="0.88"/>
  <path d="M11.9829 9.40571C11.8535 9.40571 11.7486 9.30081 11.7486 9.17142C11.7486 9.04203 11.8535 8.93713 11.9829 8.93713" stroke="currentColor" stroke-width="0.88"/>
  <path d="M11.9829 9.40571C12.1123 9.40571 12.2172 9.30081 12.2172 9.17142C12.2172 9.04203 12.1123 8.93713 11.9829 8.93713" stroke="currentColor" stroke-width="0.88"/>
  <path d="M11.9829 12.6857C11.8535 12.6857 11.7486 12.5808 11.7486 12.4514C11.7486 12.3221 11.8535 12.2172 11.9829 12.2172" stroke="currentColor" stroke-width="0.88"/>
  <path d="M11.9829 12.6857C12.1123 12.6857 12.2172 12.5808 12.2172 12.4514C12.2172 12.3221 12.1123 12.2172 11.9829 12.2172" stroke="currentColor" stroke-width="0.88"/>
  </g>
  <defs>
  <clipPath id="clip0_72_8404">
  <rect width="16" height="16" fill="white"/>
  </clipPath>
  </defs>
  </svg>
  