<svg viewBox="0 0 16 16" fill="none" xmlns="http://www.w3.org/2000/svg">
  <g clip-path="url(#clip0_66_1851)">
  <path d="M8.00001 15.0302C11.8823 15.0302 15.0295 11.8829 15.0295 8.00064C15.0295 4.11832 11.8823 0.9711 8.00001 0.9711C4.11772 0.9711 0.97049 4.11832 0.97049 8.00064C0.97049 11.8829 4.11772 15.0302 8.00001 15.0302Z" stroke="currentColor" stroke-width="0.58" stroke-linecap="round" stroke-linejoin="round"/>
  <path d="M6.08286 6.72511C6.08291 6.37951 6.17639 6.04032 6.35343 5.74347C6.53046 5.44662 6.78447 5.20315 7.08852 5.03883C7.39258 4.8745 7.73543 4.79543 8.08071 4.80999C8.42605 4.82454 8.76104 4.93218 9.05021 5.12151C9.33931 5.31084 9.57193 5.57482 9.72338 5.88552C9.87477 6.19621 9.93938 6.54206 9.91037 6.88647C9.88135 7.23086 9.75974 7.56105 9.55844 7.84198C9.35714 8.12297 9.08363 8.34427 8.76686 8.48249C8.53891 8.58199 8.34496 8.74578 8.20877 8.95386C8.07253 9.16193 8 9.40522 8 9.65387V9.91716" stroke="currentColor" stroke-width="0.58" stroke-linecap="round" stroke-linejoin="round"/>
  <path d="M8.00229 11.5148C7.91404 11.5148 7.84253 11.4433 7.84253 11.355C7.84253 11.2668 7.91404 11.1953 8.00229 11.1953" stroke="currentColor" stroke-width="0.58"/>
  <path d="M8.00229 11.5148C8.09054 11.5148 8.16205 11.4433 8.16205 11.355C8.16205 11.2668 8.09054 11.1953 8.00229 11.1953" stroke="currentColor" stroke-width="0.58"/>
  </g>
  <defs>
  <clipPath id="clip0_66_1851">
  <rect width="16" height="16" fill="white"/>
  </clipPath>
  </defs>
  </svg>
  