<svg viewBox="0 0 16 16" fill="none" xmlns="http://www.w3.org/2000/svg">
  <g clip-path="url(#clip0_72_16884)">
  <path d="M1.42254 8.8478C1.71338 9.53213 2.13615 10.1525 2.66673 10.6734C3.19732 11.1944 3.82531 11.6057 4.51486 11.884C5.20441 12.1622 5.94202 12.3019 6.68556 12.2951C7.4291 12.2883 8.16402 12.1351 8.84836 11.8443C9.5327 11.5534 10.153 11.1307 10.674 10.6001C11.1949 10.0695 11.6063 9.44149 11.8845 8.75194C12.1628 8.06239 12.3025 7.32478 12.2957 6.58124C12.2888 5.8377 12.1356 5.10278 11.8448 4.41844C11.554 3.7341 11.1312 3.11375 10.6006 2.5928C10.07 2.07185 9.44204 1.66051 8.75249 1.38227C8.06294 1.10402 7.32533 0.964311 6.58179 0.971124C5.83825 0.977937 5.10333 1.13113 4.41899 1.42197C3.73465 1.71281 3.1143 2.13559 2.59335 2.66617C2.07241 3.19675 1.66107 3.82475 1.38282 4.5143C1.10458 5.20385 0.964874 5.94145 0.971689 6.685C0.978503 7.42854 1.1317 8.16346 1.42254 8.8478Z" stroke="currentColor" stroke-width="1" stroke-linecap="round" stroke-linejoin="round"/>
  <path d="M10.6371 10.6365L15.0286 15.0286" stroke="currentColor" stroke-width="1" stroke-linecap="round" stroke-linejoin="round"/>
  </g>
  <defs>
  <clipPath id="clip0_72_16884">
  <rect width="16" height="16" fill="white"/>
  </clipPath>
  </defs>
  </svg>
  