<svg viewBox="0 0 18 19" fill="none" xmlns="http://www.w3.org/2000/svg">
  <path d="M2.06667 1H15.9333C15.9333 1 17 1 17 2.13333V16.8667C17 16.8667 17 18 15.9333 18H2.06667C2.06667 18 1 18 1 16.8667V2.13333C1 2.13333 1 1 2.06667 1Z" stroke="currentColor" stroke-width="0.88" stroke-linecap="round" stroke-linejoin="round"/>
  <path d="M9.71106 12.3333H13.7999" stroke="currentColor" stroke-width="0.88" stroke-linecap="round" stroke-linejoin="round"/>
  <path d="M4.20007 12.3333H6.15563" stroke="currentColor" stroke-width="0.88" stroke-linecap="round" stroke-linejoin="round"/>
  <path fill-rule="evenodd" clip-rule="evenodd" d="M9.71113 12.3334C9.71113 12.707 9.60687 13.0722 9.41153 13.3828C9.21618 13.6934 8.93853 13.9355 8.61368 14.0785C8.28884 14.2215 7.93139 14.2589 7.58653 14.186C7.24168 14.1131 6.92491 13.9332 6.67628 13.6691C6.42765 13.4049 6.25833 13.0683 6.18974 12.7019C6.12114 12.3355 6.15635 11.9557 6.2909 11.6106C6.42546 11.2654 6.65332 10.9704 6.94568 10.7629C7.23803 10.5553 7.58175 10.4445 7.93336 10.4445C8.40485 10.4445 8.85704 10.6435 9.19044 10.9978C9.52383 11.352 9.71113 11.8324 9.71113 12.3334Z" stroke="currentColor" stroke-width="0.88" stroke-linecap="round" stroke-linejoin="round"/>
  <path d="M10.4223 6.66663H4.20007" stroke="currentColor" stroke-width="0.88" stroke-linecap="round" stroke-linejoin="round"/>
  <path fill-rule="evenodd" clip-rule="evenodd" d="M13.9778 6.66666C13.9778 6.29307 13.8735 5.92788 13.6782 5.61725C13.4828 5.30662 13.2052 5.06452 12.8803 4.92155C12.5555 4.77859 12.198 4.74118 11.8532 4.81407C11.5083 4.88695 11.1916 5.06685 10.9429 5.33101C10.6943 5.59518 10.525 5.93175 10.4564 6.29816C10.3878 6.66457 10.423 7.04436 10.5576 7.38951C10.6921 7.73466 10.92 8.02966 11.2123 8.23721C11.5047 8.44477 11.8484 8.55555 12.2 8.55555C12.6715 8.55555 13.1237 8.35654 13.4571 8.00231C13.7905 7.64807 13.9778 7.16763 13.9778 6.66666Z" stroke="currentColor" stroke-width="0.88" stroke-linecap="round" stroke-linejoin="round"/>
</svg>
  